<svg xmlns="http://www.w3.org/2000/svg" fill="none" viewBox="0 0 52 52"><rect width="52" height="52" fill="#fff" rx="26"/><path fill="#316DC2" d="M11.92 19.8c-.85.6-1.35 1.9-.41 3.43.94 1.53 14.38 11.9 14.88 12.2.49.28.98.33 2.24-.68 1.25-1 11.74-8.88 12-9.12.44-.38.54-1.3 0-1.73 0 0-12.7 9.5-13.11 9.89-.42.38-1.06-.24-.94-1.06.12-.81.2-.9 1.82-2.16a2565.5 2565.5 0 0 1 11.18-8.48c.47-.35.48-.96-.3-1.5l-13.01-9.27c-.4-.3-.93-.55-1.73.02-.81.58-11.06 7.35-12.62 8.46"/><path fill="#316DC2" d="M26.39 36.43c-.33-.19-6.23-4.71-10.51-8.24v7.35c0 5.37 15.12 8.24 20.13 1.64v-7.03a766.27 766.27 0 0 0-7.38 5.61c-1.26 1-1.75.96-2.24.67"/><path fill="#98B8E6" d="M32.78 28.37s2.25 1.13 2.41 5.68l-1.09-.3-.87 1.85c-.37-4.98-2.37-5.7-2.37-5.7z"/></svg>