<svg xmlns="http://www.w3.org/2000/svg" xmlns:xlink="http://www.w3.org/1999/xlink"><symbol id="a" fill="none" viewBox="0 0 18 18"><path stroke="#fff" d="M9 0v9m0 0v9m0-9h-9m9 0h9"/></symbol><use xlink:href="#a" width="18" height="18"/><view viewBox="0 0 18 18"/><symbol id="b" fill="none" viewBox="0 0 12 12"><path stroke="#fff" d="m11.46 3.82-5.46 4.9-5.45-4.9" opacity=".6"/></symbol><use xlink:href="#b" width="12" height="12" y="18"/><view viewBox="0 18 12 12"/><symbol id="c" fill="CurrentColor" viewBox="0 0 10 10"><path stroke="CurrentColor" d="m1 9 8-8m0 0h-7.95m7.95 0v7.95"/></symbol><use xlink:href="#c" width="10" height="10" y="30"/><view viewBox="0 30 10 10"/><symbol id="d" fill="CurrentColor" viewBox="0 0 16 16"><path d="M8 2.42c.96 0 1.74.77 1.74 1.71s-.78 1.7-1.74 1.7-1.74-.76-1.74-1.7.78-1.71 1.74-1.71m0 5.84a4.18 4.18 0 0 0 4.21-4.13c0-2.28-1.89-4.13-4.21-4.13s-4.21 1.85-4.21 4.13a4.17 4.17 0 0 0 4.2 4.13m1.71 3.37a8 8 0 0 0 2.45-1c.57-.35.75-1.1.39-1.66a1.25 1.25 0 0 0-1.7-.38 5.44 5.44 0 0 1-5.68 0 1.24 1.24 0 0 0-1.7.38 1.2 1.2 0 0 0 .39 1.66 8 8 0 0 0 2.44 1l-2.35 2.3a1.2 1.2 0 0 0 0 1.71 1.25 1.25 0 0 0 1.75 0l2.31-2.26 2.32 2.26c.48.48 1.25.48 1.74 0a1.2 1.2 0 0 0 0-1.7z"/></symbol><use xlink:href="#d" width="16" height="16" y="40"/><view viewBox="0 40 16 16"/><symbol id="e" fill="CurrentColor" viewBox="0 0 16 16"><path d="M9.41.36c-.46 0-.9.25-1.18.61-.28.36-.44.8-.55 1.26-.18.74-.23 1.56-.25 2.3-1.3.09-2.5.5-3.48 1.13-.4-.36-.88-.55-1.34-.55-.53 0-1.03.25-1.4.73-.71.94-.63 2.47.2 3.37a5 5 0 0 0-.1.86c0 3.08 3 5.57 6.69 5.57s6.68-2.5 6.68-5.57c0-.29-.03-.58-.08-.86.82-.9.9-2.43.2-3.37a1.74 1.74 0 0 0-1.4-.73c-.47 0-.95.2-1.35.55a7.4 7.4 0 0 0-3.47-1.13c.02-.69.07-1.4.2-1.93.08-.33.18-.58.28-.7.1-.14.18-.2.35-.2.38 0 .43.13.66.44.11.16.25.35.46.55.21.19.53.35.87.35v-1.34c-.1 0-.12 0-.18-.06s-.15-.2-.28-.38c-.26-.35-.77-.9-1.52-.9m3.67.13c-.88 0-1.59.84-1.59 1.88s.71 1.88 1.6 1.88c.87 0 1.59-.84 1.59-1.88s-.72-1.88-1.6-1.88m0 .67c.57 0 1.03.54 1.03 1.21s-.46 1.21-1.03 1.21-1.02-.54-1.02-1.2c0-.68.46-1.22 1.02-1.22m-5.09 4.41c3.13 0 5.78 2.07 5.78 4.5 0 2.44-2.65 4.5-5.78 4.5-3.13 0-5.78-2.06-5.78-4.5 0-2.43 2.65-4.5 5.78-4.5m-5.38.61c.16 0 .32.04.48.13a5.45 5.45 0 0 0-1.33 1.75c-.2-.51-.15-1.16.11-1.5a.9.9 0 0 1 .74-.38m10.76 0a.9.9 0 0 1 .74.38c.26.34.32.99.1 1.5a5.45 5.45 0 0 0-1.32-1.76c.16-.08.32-.12.48-.12m-7.64 1.67c-.57 0-1.03.55-1.03 1.22s.46 1.21 1.03 1.21 1.02-.54 1.02-1.21c0-.67-.46-1.22-1.02-1.22m4.53 0c-.57 0-1.03.55-1.03 1.22s.46 1.21 1.03 1.21 1.02-.54 1.02-1.21c0-.67-.46-1.22-1.02-1.22m-5.08 4.13a3.1 3.1 0 0 0 2.81 1.73c1.34 0 2.47-.85 2.83-1.74-.65.5-1.68.84-2.83.84s-2.15-.34-2.81-.84"/></symbol><use xlink:href="#e" width="16" height="16" y="56"/><view viewBox="0 56 16 16"/><symbol id="f" fill="CurrentColor" viewBox="0 0 22 22"><path stroke="CurrentColor" d="M16 10.69h-10m0 0 4.97 5.31m-4.97-5.31 4.97-4.69"/></symbol><use xlink:href="#f" width="22" height="22" y="72"/><view viewBox="0 72 22 22"/><symbol id="g" fill="CurrentColor" viewBox="0 0 16 16"><path d="M15.86 11.42c-.05-.07-.31-.62-1.6-1.76-1.33-1.19-1.15-1 .46-3.05.98-1.25 1.38-2.02 1.25-2.34-.11-.31-.84-.23-.84-.23l-2.4.01s-.18-.02-.3.05a.65.65 0 0 0-.22.25s-.38.97-.9 1.8c-1.06 1.73-1.5 1.82-1.67 1.72-.4-.25-.3-1.01-.3-1.55 0-1.69.27-2.4-.52-2.57-.26-.06-.46-.1-1.13-.11-.85-.01-1.58 0-2 .2-.27.12-.48.4-.35.42.16.02.52.1.71.35.25.32.24 1.04.24 1.04s.14 1.98-.33 2.23c-.32.17-.77-.18-1.72-1.76-.5-.8-.87-1.7-.87-1.7s-.07-.17-.2-.25a1.03 1.03 0 0 0-.36-.15l-2.29.02s-.34 0-.47.15c-.11.13 0 .39 0 .39s1.78 4 3.81 6.02c1.86 1.85 3.97 1.73 3.97 1.73h.95s.3-.03.44-.19c.14-.14.13-.4.13-.4s-.02-1.22.58-1.4c.59-.18 1.34 1.18 2.14 1.7.6.4 1.06.31 1.06.31l2.14-.02s1.12-.07.59-.9"/></symbol><use xlink:href="#g" width="16" height="16" y="94"/><view viewBox="0 94 16 16"/></svg>